<?xml version="1.0" encoding="utf-8"?>
<!-- Generator: Adobe Illustrator 14.0.0, SVG Export Plug-In . SVG Version: 6.00 Build 43363)  -->
<!DOCTYPE svg PUBLIC "-//W3C//DTD SVG 1.1//EN" "http://www.w3.org/Graphics/SVG/1.1/DTD/svg11.dtd">
<svg version="1.1" id="MooTools_Logo" xmlns="http://www.w3.org/2000/svg" xmlns:xlink="http://www.w3.org/1999/xlink" x="0px"
	 y="0px" width="2365.5px" height="1022px" viewBox="0 -11.471 2365.5 1022" enable-background="new 0 -11.471 2365.5 1022"
	 xml:space="preserve">
<rect x="824.5" fill="#00293F" width="1272" height="80.439"/>
<g>
	<path fill="#0D0F1E" d="M1948.135,816.25c-7.336,0-14.812,6.066-15.271,13.551l-3.716,62.947h29.156l3.719-62.947
		C1962.48,822.316,1955.471,816.25,1948.135,816.25z"/>
	<path fill="#0D0F1E" d="M1891.001,815.91c-7.334,0-14.017,6.406-14.475,13.891l-3.719,62.947h29.158l3.717-62.947
		C1906.145,822.316,1898.337,815.91,1891.001,815.91z"/>
	<path fill="#0D0F1E" d="M2028.141,728.265l-4.566,1.084l11.477,29.23c0,0-0.26,6.828-7.076,8.773
		c-6.814,1.943-11.57-3.172-11.57-3.172l-7.617-27.805h-2.438c0,0-1.537,0-4.281,0c-18.938,0-91.405,0-117.493,0
		c-29.869,0-26.432,31.242-26.432,31.242v26.434h14.748c5.339-2.758,12.178-4.326,18.411-4.326c11.572,0,23.312,5.373,29.644,13.807
		c7.365-8.434,17.169-13.807,28.739-13.807c20.623,0,39.76,17.059,38.469,38.098l-3.984,64.924h22.182v-0.021
		c0.605,0.014,1.227,0.021,1.873,0.021c8.889,0.26,17.668-7.135,17.957-15.369c0.293-8.227-0.457-47.93,1.723-65.447
		c2.18-17.514,30.165-31.83,29.747-47.805C2057.227,748.154,2028.141,728.265,2028.141,728.265z M2009.555,885.109
		c-5.453,0-9.873-4.422-9.873-9.873c0-5.453,4.42-9.873,9.873-9.873s9.875,4.42,9.875,9.873
		C2019.43,880.687,2015.008,885.109,2009.555,885.109z"/>
</g>
<g>
	<path fill="#FFFFFF" d="M873.396,41.177c-2.342,0-4.728,1.936-4.872,4.323l-1.188,20.083h9.304l1.187-20.083
		C877.974,43.112,875.738,41.177,873.396,41.177z"/>
	<path fill="#FFFFFF" d="M855.17,41.068c-2.34,0-4.472,2.044-4.618,4.431l-1.187,20.083h9.303l1.188-20.083
		C860.001,43.112,857.51,41.068,855.17,41.068z"/>
	<path fill="#FFFFFF" d="M898.921,13.107l-1.457,0.346l3.661,9.325c0,0-0.083,2.179-2.258,2.8c-2.175,0.62-3.691-1.012-3.691-1.012
		l-3.207-8.87c0,0-30.525,0-38.85,0c-9.529,0-8.433,9.967-8.433,9.967v8.433h4.705c1.701-0.879,3.885-1.38,5.872-1.38
		c3.691,0,7.438,1.713,9.456,4.403c2.353-2.69,5.479-4.403,9.171-4.403c6.578,0,12.684,5.441,12.271,12.153l-1.271,20.712h7.076
		v-0.007c0.193,0.004,0.392,0.007,0.6,0.007c2.834,0.083,5.636-2.276,5.729-4.903c0.094-2.625-0.146-15.291,0.549-20.879
		c0.695-5.588,9.624-10.155,9.49-15.251C908.2,19.452,898.921,13.107,898.921,13.107z M892.991,63.145
		c-1.739,0-3.149-1.411-3.149-3.15c0-1.739,1.41-3.149,3.149-3.149c1.74,0,3.148,1.41,3.148,3.149
		C896.142,61.734,894.731,63.145,892.991,63.145z"/>
</g>
<g>
	<path fill="#130E1E" d="M1666.229,816.25c-7.336,0-14.812,6.066-15.271,13.551l-3.715,62.947h29.158l3.717-62.947
		C1680.574,822.316,1673.564,816.25,1666.229,816.25z"/>
	<path fill="#130E1E" d="M1609.094,815.91c-7.334,0-14.016,6.406-14.475,13.891l-3.717,62.947h29.156l3.719-62.947
		C1624.236,822.316,1616.43,815.91,1609.094,815.91z"/>
	<path fill="#130E1E" d="M1753.234,721.265l-4.568,1.084l8.477,25.23c0,0-0.26,6.828-7.074,8.773
		c-6.816,1.943-11.572-3.172-11.572-3.172l-7.617-27.805h-2.436c0,0-1.539,0-4.283,0c-18.938,0-95.406,0-121.494,0
		c-29.869,0-26.43,31.242-26.43,31.242v37.434h14.748c5.338-2.758,12.176-4.326,18.411-4.326c11.571,0,23.31,5.373,29.642,13.807
		c7.367-8.434,17.17-13.807,28.742-13.807c20.623,0,39.758,17.059,38.467,38.098l-3.984,64.924h26.184v-0.021
		c0.604,0.014,1.225,0.021,1.873,0.021c8.887,0.26,17.668-7.135,17.957-15.369c0.293-8.227-0.457-47.93,1.721-65.447
		c2.18-17.514,30.166-42.83,29.748-58.805C1779.32,737.154,1753.234,721.265,1753.234,721.265z M1731.648,885.109
		c-5.453,0-9.873-4.422-9.873-9.873c0-5.453,4.42-9.873,9.873-9.873c5.451,0,9.875,4.42,9.875,9.873
		C1741.523,880.687,1737.102,885.109,1731.648,885.109z"/>
</g>
<rect x="824.5" y="588.843" fill="#0D0F1E" width="1272" height="66.186"/>
<g>
	<path fill="#FFFFFF" d="M916.639,613.154c-2.354-2.377-5.265-3.568-8.727-3.568c-3.437-0.002-6.494,1.189-9.178,3.564
		c-0.711,0.654-1.33,1.348-1.867,2.066c-0.438-0.723-0.963-1.416-1.584-2.074c-2.356-2.379-5.268-3.566-8.729-3.568
		c-3.436,0-6.495,1.188-9.179,3.562c-0.425,0.395-0.812,0.797-1.176,1.213c-1.438-2.859-4.604-4.83-7.941-4.83
		c-2.628,0-4.854,1.223-6.526,3.137c-1.439-1.914-4.104-3.137-6.733-3.137c-1.416,0-2.97,0.357-4.182,0.984h-4.524l-1.479,23.572
		h5.918l0.912-15.453c0.104-1.701,1.62-3.156,3.286-3.156s3.439,1.457,3.334,3.156l-0.911,15.453h6.175l0.912-15.453
		c0.104-1.699,1.804-3.078,3.469-3.078c1.666,0,3.259,1.379,3.153,3.078l-0.911,15.453h5.87l0.224-3.611
		c2.346,2.34,5.222,3.514,8.63,3.516c3.461,0,6.534-1.188,9.218-3.564c0.711-0.656,1.332-1.346,1.868-2.066
		c0.438,0.727,0.962,1.416,1.583,2.072c2.357,2.379,5.253,3.568,8.688,3.57c3.462,0,6.533-1.189,9.219-3.566
		c2.634-2.43,4.062-5.301,4.292-8.611C919.971,618.472,918.938,615.585,916.639,613.154z M892.69,621.802
		c-0.126,1.844-0.931,3.434-2.406,4.77c-1.448,1.309-3.126,1.963-5.037,1.963c-1.912-0.002-3.515-0.654-4.81-1.965
		c-1.269-1.338-1.837-2.928-1.707-4.771c0.126-1.844,0.914-3.434,2.362-4.77c1.477-1.309,3.168-1.963,5.08-1.961
		c1.912,0,3.5,0.654,4.77,1.965C892.234,618.369,892.818,619.958,892.69,621.802z M914.047,621.812
		c-0.126,1.844-0.93,3.434-2.405,4.77c-1.447,1.311-3.127,1.965-5.039,1.963c-1.91,0-3.515-0.654-4.81-1.965
		c-1.265-1.336-1.834-2.926-1.707-4.771c0.127-1.842,0.915-3.432,2.364-4.768c1.476-1.309,3.17-1.965,5.08-1.963
		c1.912,0,3.501,0.654,4.768,1.965C913.59,618.378,914.174,619.968,914.047,621.812z"/>
	<path id="L_1_" fill="#FFFFFF" d="M998.962,608.521c-0.101-3.355-5.593-6.674-5.593-6.674l-0.96,0.23l1.8,5.295
		c0,0-0.05,1.436-1.479,1.85c-1.431,0.414-2.434-0.656-2.434-0.656l-1.402-5.318l-0.992,0.41c0,0-2.732,7.352-2.369,8.27
		c0.521,2.373,2.05,4.453,2.221,8.037c0.172,3.582-2.324,11.891-2.565,14.043c-0.24,2.152,1.651,3.863,3.521,3.912
		c1.867,0.047,3.684-1.539,3.737-3.27c0.056-1.729-0.131-10.068,0.312-13.752C993.201,617.216,999.061,611.876,998.962,608.521z
		 M988.886,636.187c-1.002,0.057-1.856-0.711-1.915-1.713c-0.056-1.004,0.711-1.859,1.713-1.918
		c1.001-0.055,1.859,0.711,1.915,1.717C990.655,635.271,989.888,636.13,988.886,636.187z"/>
</g>
<g opacity="0.65">
	<path fill="#FFFFFF" d="M971.854,609.585c-3.436-0.002-6.492,1.188-9.18,3.564c-0.714,0.658-1.339,1.354-1.877,2.084
		c-0.438-0.73-0.967-1.43-1.593-2.094c-2.322-2.344-5.183-3.527-8.578-3.562l0.007-0.086l-29.325-0.002l-0.363,5.344h3.13
		l-0.416,10.363c-0.216,3.131,0.223,5.281,1.4,6.652c1.041,1.225,2.853,1.934,5.055,1.934c1.906,0,4.147,0.01,4.147,0.01
		l0.313-5.439c0,0-1.021-0.002-2.146-0.002c-2.3,0-3.056-0.951-2.854-3.84l0.665-9.678h9.479c-1.63,2.047-2.536,4.365-2.714,6.961
		c-0.229,3.311,0.806,6.188,3.104,8.615c2.355,2.381,5.252,3.566,8.688,3.568c3.462,0,6.534-1.188,9.22-3.562
		c0.716-0.66,1.338-1.355,1.877-2.082c0.438,0.729,0.969,1.426,1.595,2.088c2.354,2.379,5.252,3.568,8.687,3.57
		c3.461,0,6.535-1.189,9.219-3.566c2.634-2.43,4.063-5.301,4.292-8.613c0.229-3.34-0.804-6.227-3.102-8.658
		C978.224,610.777,975.312,609.585,971.854,609.585z M956.611,621.802c-0.127,1.844-0.931,3.434-2.406,4.77
		c-1.448,1.309-3.127,1.963-5.038,1.963c-1.911-0.002-3.515-0.654-4.809-1.965c-1.269-1.338-1.835-2.928-1.708-4.771
		c0.128-1.844,0.914-3.434,2.363-4.77c1.478-1.309,3.168-1.963,5.078-1.961c1.912,0,3.502,0.654,4.77,1.965
		C956.155,618.369,956.738,619.958,956.611,621.802z M977.989,621.812c-0.128,1.844-0.933,3.434-2.407,4.77
		c-1.448,1.311-3.127,1.965-5.039,1.963c-1.91,0-3.515-0.654-4.809-1.965c-1.268-1.336-1.836-2.926-1.708-4.771
		c0.127-1.842,0.915-3.432,2.363-4.768c1.478-1.309,3.169-1.965,5.08-1.963c1.911,0,3.5,0.654,4.77,1.965
		C977.532,618.378,978.115,619.968,977.989,621.812z"/>
	<path fill="#FFFFFF" d="M1011.839,617.316c0.565-0.518,2.363-2.254,3.188-3.232c-3.813-4.768-11.984-5.252-14.804-0.273
		c-4.656,8.234,8.712,11.947,6.155,15.814c-1.689,2.559-5.212-0.291-5.212-0.291s-1.468,1.676-3.373,3.994
		c3.914,2.779,9.332,3.391,12.789-0.408c1.01-1.107,3.04-3.965,0.876-8.088c-2.163-4.119-7.915-6.1-6.039-8.729
		C1006.844,614.115,1010.433,615.91,1011.839,617.316z"/>
</g>
<path fill="#FFFFFF" d="M1177.883,114.853c0,3.06-2.479,5.541-5.54,5.541H963.041c-3.061,0-5.541-2.481-5.541-5.541V45.84
	c0-3.06,2.48-5.541,5.541-5.541h209.302c3.062,0,5.54,2.481,5.54,5.541V114.853z"/>
<text transform="matrix(1 0 0 1 980.5 66.3745)" fill="#00293F" font-family="'GothamBook'" font-size="16.011">DOCUMENTATION</text>
<text transform="matrix(1 0 0 1 1220.166 64.6284)" fill="#FFFFFF" font-family="'GothamBook'" font-size="16.011">EXAMPLES</text>
<text transform="matrix(1 0 0 1 1389.833 65.0894)" fill="#FFFFFF" font-family="'GothamBook'" font-size="16.011">PLUGINS</text>
<path fill="#7AC9A7" d="M1919.515,60.584c0,2.762-2.236,5-5,5h-156.49c-2.764,0-5-2.238-5-5V37.876c0-2.761,2.236-5,5-5h156.49
	c2.764,0,5,2.239,5,5V60.584L1919.515,60.584z"/>
<text transform="matrix(1 0 0 1 1778.5215 55.481)" fill="#FFFFFF" font-family="'GothamBook'" font-size="16.011">DOWNLOAD</text>
</svg>
