<?xml version="1.0" encoding="utf-8"?>
<!-- Generator: Adobe Illustrator 14.0.0, SVG Export Plug-In . SVG Version: 6.00 Build 43363)  -->
<!DOCTYPE svg PUBLIC "-//W3C//DTD SVG 1.1//EN" "http://www.w3.org/Graphics/SVG/1.1/DTD/svg11.dtd">
<svg version="1.1" id="MooTools_Logo" xmlns="http://www.w3.org/2000/svg" xmlns:xlink="http://www.w3.org/1999/xlink" x="0px"
	 y="0px" width="1272px" height="958.058px" viewBox="0 0 1272 958.058" enable-background="new 0 0 1272 958.058"
	 xml:space="preserve">
<g>
	<path fill="#0D0F1E" d="M777.472,635.438c-7.771,0-15.691,6.427-16.18,14.354l-3.936,66.683h30.889l3.937-66.683
		C792.668,641.865,785.243,635.438,777.472,635.438z"/>
	<path fill="#0D0F1E" d="M716.948,635.078c-7.77,0-14.849,6.787-15.335,14.715l-3.938,66.683h30.889l3.938-66.683
		C732.988,641.865,724.719,635.078,716.948,635.078z"/>
	<path fill="#0D0F1E" d="M862.224,542.235l-4.838,1.146l12.158,30.964c0,0-0.275,7.233-7.497,9.298
		c-7.22,2.059-12.257-3.359-12.257-3.359l-8.069-29.454h-2.581c0,0-1.631,0-4.538,0c-20.059,0-96.828,0-124.464,0
		c-31.642,0-27.998,33.095-27.998,33.095v28.002h15.622c5.653-2.922,12.899-4.583,19.504-4.583c12.259,0,24.693,5.691,31.401,14.621
		c7.805-8.93,18.188-14.621,30.446-14.621c21.847,0,42.118,18.068,40.751,40.355l-4.222,68.776h23.498v-0.023
		c0.641,0.015,1.298,0.023,1.984,0.023c9.414,0.274,18.716-7.561,19.022-16.281c0.31-8.715-0.484-50.773,1.823-69.331
		c2.31-18.554,31.955-33.718,31.513-50.642C893.036,563.301,862.224,542.235,862.224,542.235z M842.535,708.383
		c-5.776,0-10.459-4.683-10.459-10.459c0-5.777,4.683-10.459,10.459-10.459c5.777,0,10.462,4.682,10.462,10.459
		C852.997,703.701,848.312,708.383,842.535,708.383z"/>
</g>
<g>
	<path fill="#130E1E" d="M393.824,629.718c-7.771,0-15.692,6.427-16.179,14.354l-3.937,66.683h30.89l3.937-66.683
		C409.02,636.145,401.595,629.718,393.824,629.718z"/>
	<path fill="#130E1E" d="M333.299,629.358c-7.77,0-14.849,6.787-15.334,14.715l-3.938,66.683h30.888l3.937-66.683
		C349.339,636.145,341.069,629.358,333.299,629.358z"/>
	<path fill="#130E1E" d="M485.991,529.099l-4.839,1.147l8.98,26.726c0,0-0.276,7.235-7.496,9.298
		c-7.22,2.059-12.258-3.359-12.258-3.359l-8.069-29.454h-2.581c0,0-1.631,0-4.538,0c-20.06,0-101.065,0-128.701,0
		c-31.641,0-27.998,33.096-27.998,33.096v39.654h15.623c5.653-2.922,12.898-4.583,19.503-4.583c12.258,0,24.693,5.691,31.401,14.622
		c7.804-8.931,18.188-14.622,30.447-14.622c21.846,0,42.115,18.069,40.749,40.356l-4.221,68.775h27.736v-0.023
		c0.641,0.015,1.297,0.023,1.984,0.023c9.414,0.275,18.716-7.561,19.023-16.281c0.31-8.714-0.485-50.773,1.822-69.33
		c2.31-18.555,31.956-45.371,31.513-62.294C513.624,545.929,485.991,529.099,485.991,529.099z M463.124,702.664
		c-5.776,0-10.459-4.683-10.459-10.459s4.683-10.459,10.459-10.459s10.461,4.683,10.461,10.459S468.9,702.664,463.124,702.664z"/>
</g>
<g>
	<path fill="#130E1E" d="M508.718,154.934c-11.472-11.583-25.638-17.375-42.499-17.378c-16.724-0.004-31.624,5.778-44.69,17.357
		c-3.461,3.195-6.476,6.557-9.093,10.073c-2.123-3.525-4.689-6.902-7.716-10.105c-11.472-11.581-25.638-17.37-42.495-17.379
		c-16.729,0-31.628,5.781-44.694,17.357c-2.072,1.912-3.96,3.882-5.725,5.902c-6.996-13.93-22.416-23.518-38.67-23.518
		c-12.798,0-23.643,5.943-31.786,15.271c-7.009-9.323-19.985-15.271-32.792-15.271c-6.897,0-14.46,1.733-20.36,4.786h-22.036
		l-7.2,114.792h28.818l4.447-75.254c0.499-8.277,7.895-15.367,16.012-15.367c8.108,0,16.746,7.09,16.234,15.367l-4.446,75.254
		h30.068l4.442-75.254c0.512-8.277,8.786-14.991,16.895-14.991c8.113,0,15.867,6.714,15.364,14.991l-4.446,75.254h28.592
		l1.083-17.592c11.421,11.401,25.425,17.112,42.025,17.12c16.852,0.005,31.82-5.78,44.886-17.357
		c3.462-3.195,6.484-6.552,9.093-10.063c2.127,3.52,4.685,6.889,7.716,10.093c11.476,11.587,25.574,17.381,42.294,17.385
		c16.861,0.005,31.824-5.785,44.895-17.357c12.824-11.836,19.79-25.822,20.898-41.953
		C524.939,180.828,519.909,166.776,508.718,154.934z M392.097,197.042c-0.618,8.976-4.523,16.724-11.724,23.223
		c-7.047,6.374-15.223,9.561-24.525,9.556c-9.315,0-17.112-3.187-23.421-9.564c-6.165-6.51-8.936-14.254-8.313-23.232
		c0.614-8.976,4.459-16.72,11.515-23.225c7.188-6.374,15.428-9.56,24.739-9.556c9.311,0,17.043,3.191,23.217,9.569
		C389.876,180.327,392.72,188.066,392.097,197.042z M496.095,197.093c-0.614,8.98-4.527,16.72-11.715,23.226
		c-7.056,6.373-15.228,9.56-24.539,9.556s-17.112-3.191-23.417-9.57c-6.16-6.508-8.931-14.248-8.317-23.228
		c0.627-8.976,4.459-16.72,11.519-23.224c7.183-6.373,15.432-9.56,24.739-9.556c9.311,0,17.048,3.191,23.212,9.568
		C493.87,180.38,496.713,188.12,496.095,197.093z"/>
	<path id="L_1_" fill="#130E1E" d="M909.603,132.374c-0.49-16.345-27.237-32.502-27.237-32.502l-4.672,1.123l8.765,25.781
		c0,0-0.243,6.989-7.2,9.006c-6.966,2.017-11.852-3.199-11.852-3.199l-6.829-25.892l-4.839,1.995c0,0-13.31,35.806-11.54,40.271
		c2.536,11.556,9.979,21.687,10.819,39.131c0.84,17.445-11.318,57.908-12.495,68.389c-1.177,10.483,8.045,18.811,17.138,19.048
		c9.089,0.234,17.935-7.493,18.203-15.917c0.27-8.421-0.635-49.036,1.526-66.967C881.547,174.712,910.084,148.711,909.603,132.374z
		 M860.534,267.093c-4.877,0.271-9.051-3.461-9.323-8.343c-0.277-4.879,3.462-9.057,8.339-9.332c4.872-0.274,9.05,3.462,9.327,8.341
		C869.15,262.641,865.416,266.823,860.534,267.093z"/>
</g>
<g>
	<path fill="#130E1E" d="M777.587,137.555c-16.724-0.004-31.619,5.778-44.694,17.357c-3.479,3.216-6.522,6.604-9.14,10.152
		c-2.132-3.554-4.711-6.953-7.759-10.185c-11.306-11.41-25.229-17.191-41.77-17.366l0.034-0.422H531.458l-1.782,26.018h15.245
		l-2.033,50.463c-1.044,15.253,1.091,25.74,6.829,32.41c5.069,5.957,13.885,9.402,24.607,9.402c9.293,0,20.207,0.058,20.207,0.058
		l1.53-26.489c0,0-4.966-0.013-10.444-0.013c-11.195,0-14.874-4.638-13.911-18.693l3.24-47.129h46.165
		c-7.934,9.961-12.35,21.26-13.22,33.892c-1.108,16.136,3.926,30.127,15.108,41.966c11.476,11.581,25.574,17.374,42.303,17.379
		c16.856,0.004,31.819-5.781,44.895-17.357c3.483-3.217,6.514-6.6,9.14-10.136c2.137,3.545,4.711,6.937,7.76,10.161
		c11.472,11.587,25.569,17.381,42.294,17.385c16.856,0.005,31.823-5.785,44.895-17.357c12.823-11.836,19.785-25.822,20.897-41.953
		c1.117-16.266-3.913-30.313-15.1-42.156C808.614,143.351,794.443,137.559,777.587,137.555z M703.371,197.042
		c-0.618,8.976-4.523,16.724-11.719,23.223c-7.052,6.374-15.229,9.561-24.539,9.556c-9.306,0-17.111-3.187-23.413-9.564
		c-6.168-6.51-8.935-14.254-8.317-23.232c0.626-8.976,4.455-16.72,11.519-23.225c7.188-6.374,15.428-9.56,24.73-9.556
		c9.311,0,17.052,3.191,23.217,9.569C701.15,180.327,703.989,188.066,703.371,197.042z M807.472,197.093
		c-0.622,8.98-4.532,16.72-11.724,23.226c-7.051,6.373-15.228,9.56-24.538,9.556c-9.303-0.004-17.112-3.191-23.413-9.57
		c-6.164-6.508-8.939-14.248-8.317-23.228c0.622-8.976,4.459-16.72,11.515-23.224c7.188-6.373,15.433-9.56,24.743-9.556
		c9.306,0,17.039,3.191,23.212,9.568C805.246,180.38,808.086,188.12,807.472,197.093z"/>
	<path fill="#130E1E" d="M972.309,175.198c2.754-2.511,11.51-10.975,15.525-15.737c-18.569-23.212-58.361-25.574-72.08-1.328
		c-22.684,40.101,42.427,58.174,29.97,77.011c-8.236,12.458-25.374-1.424-25.374-1.424s-7.153,8.164-16.43,19.453
		c19.061,13.542,45.444,16.52,62.283-1.986c4.916-5.391,14.802-19.312,4.264-39.381c-10.53-20.064-38.538-29.711-29.402-42.505
		C947.983,159.608,965.462,168.352,972.309,175.198z"/>
</g>
</svg>
